<svg width="57" height="57" viewBox="0 0 57 57" fill="none" xmlns="http://www.w3.org/2000/svg">
<g clip-path="url(#clip0_149_23)">
<path d="M32.1516 28.5C32.1516 37.3528 24.9553 44.5313 16.074 44.5313C13.9659 44.5341 11.878 44.1216 9.9293 43.3175C7.98063 42.5134 6.20942 41.3333 4.71682 39.8447C3.22421 38.356 2.03942 36.588 1.23011 34.6415C0.420797 32.6949 0.00280514 30.6081 0 28.5C0 19.6436 7.19625 12.4688 16.074 12.4688C18.1824 12.4655 20.2707 12.8776 22.2198 13.6815C24.1689 14.4854 25.9405 15.6654 27.4335 17.1541C28.9265 18.6428 30.1116 20.411 30.9211 22.3577C31.7306 24.3045 32.1488 26.3917 32.1516 28.5ZM49.7859 28.5C49.7859 36.8363 46.1878 43.5908 41.7489 43.5908C37.3101 43.5908 33.7119 36.8327 33.7119 28.5C33.7119 20.1638 37.3101 13.4093 41.7489 13.4093C46.1878 13.4093 49.7859 20.1673 49.7859 28.5ZM57 28.5C57 35.967 55.7353 42.0197 54.1714 42.0197C52.611 42.0197 51.3463 35.9635 51.3463 28.5C51.3463 21.033 52.611 14.9803 54.1749 14.9803C55.7353 14.9803 57 21.033 57 28.5Z" fill="#EA2222"/>
</g>
<defs>
<clipPath id="clip0_149_23">
<rect width="57" height="57" fill="white"/>
</clipPath>
</defs>
</svg>
