<svg width="57" height="57" viewBox="0 0 57 57" fill="none" xmlns="http://www.w3.org/2000/svg">
<g clip-path="url(#clip0_149_20)">
<path d="M48.2529 10.6685C44.6191 9.02975 40.7241 7.8185 36.651 7.12975C36.6147 7.12278 36.5772 7.12727 36.5436 7.14259C36.51 7.15791 36.4819 7.1833 36.4634 7.21525C35.9646 8.09162 35.4089 9.234 35.0194 10.1365C30.6995 9.49106 26.3077 9.49106 21.9878 10.1365C21.5539 9.13629 21.0647 8.16103 20.5224 7.21525C20.504 7.18291 20.4762 7.15694 20.4427 7.14082C20.4091 7.12469 20.3715 7.11917 20.3348 7.125C16.264 7.81375 12.369 9.025 8.73289 10.6661C8.7016 10.6792 8.67509 10.7016 8.65689 10.7302C1.26589 21.5959 -0.759988 32.1931 0.235137 42.6574C0.237906 42.683 0.245862 42.7078 0.258519 42.7303C0.271176 42.7527 0.288271 42.7724 0.308762 42.788C4.62269 45.9288 9.43431 48.3213 14.5421 49.8655C14.5777 49.8765 14.6158 49.8764 14.6514 49.8654C14.687 49.8544 14.7184 49.8329 14.7416 49.8037C15.8408 48.3338 16.8148 46.7743 17.6534 45.1416C17.665 45.1193 17.6717 45.0947 17.6731 45.0696C17.6744 45.0445 17.6703 45.0193 17.6611 44.9959C17.6518 44.9725 17.6377 44.9513 17.6195 44.9338C17.6014 44.9164 17.5798 44.903 17.556 44.8946C16.0218 44.3168 14.5352 43.6196 13.11 42.8094C13.0844 42.7948 13.0628 42.774 13.0472 42.749C13.0316 42.724 13.0224 42.6955 13.0206 42.6661C13.0187 42.6366 13.0241 42.6072 13.0364 42.5804C13.0487 42.5536 13.0675 42.5303 13.091 42.5125C13.3903 42.2916 13.6895 42.0612 13.9745 41.8309C14.0002 41.8102 14.0311 41.797 14.0638 41.7928C14.0965 41.7886 14.1297 41.7935 14.1598 41.8071C23.4864 45.9966 33.5873 45.9966 42.8046 41.8071C42.8348 41.7927 42.8683 41.7871 42.9015 41.7909C42.9347 41.7947 42.9661 41.8077 42.9923 41.8285C43.2773 42.0612 43.5741 42.2916 43.8758 42.5125C43.8995 42.5299 43.9186 42.5529 43.9313 42.5795C43.944 42.606 43.9499 42.6354 43.9485 42.6648C43.9471 42.6942 43.9384 42.7228 43.9232 42.748C43.908 42.7733 43.8868 42.7943 43.8615 42.8094C42.4413 43.6264 40.964 44.3175 39.4131 44.8923C39.3893 44.9009 39.3676 44.9145 39.3495 44.9322C39.3314 44.9499 39.3172 44.9713 39.308 44.9949C39.2988 45.0185 39.2947 45.0438 39.296 45.0691C39.2974 45.0944 39.3041 45.1191 39.3158 45.1416C40.1708 46.7732 41.1493 48.3265 42.2251 49.8014C42.2475 49.8316 42.2787 49.8543 42.3144 49.8662C42.3501 49.8781 42.3886 49.8787 42.4246 49.8679C47.5412 48.328 52.3607 45.9343 56.6794 42.788C56.7005 42.7733 56.7181 42.7542 56.7312 42.7321C56.7444 42.71 56.7526 42.6853 56.7554 42.6597C57.9429 30.5615 54.7651 20.0497 48.3265 10.735C48.3107 10.7047 48.2846 10.6811 48.2529 10.6685ZM19.0475 36.2852C16.2403 36.2852 13.9246 33.7464 13.9246 30.6327C13.9246 27.5167 16.1951 24.9802 19.0475 24.9802C21.9213 24.9802 24.2155 27.5381 24.1704 30.6327C24.1704 33.7487 21.8999 36.2852 19.0475 36.2852ZM37.9881 36.2852C35.1785 36.2852 32.8653 33.7464 32.8653 30.6327C32.8653 27.5167 35.1334 24.9802 37.9881 24.9802C40.8619 24.9802 43.1561 27.5381 43.111 30.6327C43.111 33.7487 40.8643 36.2852 37.9881 36.2852Z" fill="#EA2222"/>
</g>
<defs>
<clipPath id="clip0_149_20">
<rect width="57" height="57" fill="white"/>
</clipPath>
</defs>
</svg>
