<svg width="30" height="30" viewBox="0 0 30 30" fill="none" xmlns="http://www.w3.org/2000/svg">
<path fill-rule="evenodd" clip-rule="evenodd" d="M28.9033 1.0968C29.0139 1.20711 29.1016 1.33815 29.1615 1.48242C29.2213 1.62669 29.2522 1.78135 29.2522 1.93755C29.2522 2.09375 29.2213 2.24841 29.1615 2.39268C29.1016 2.53695 29.0139 2.66799 28.9033 2.7783L2.77829 28.9033C2.5553 29.1263 2.25288 29.2515 1.93754 29.2515C1.62219 29.2515 1.31977 29.1263 1.09678 28.9033C0.873804 28.6803 0.748535 28.3779 0.748535 28.0625C0.748535 27.7472 0.873804 27.4448 1.09678 27.2218L27.2218 1.0968C27.3321 0.98621 27.4631 0.898471 27.6074 0.838605C27.7517 0.77874 27.9063 0.747925 28.0625 0.747925C28.2187 0.747925 28.3734 0.77874 28.5177 0.838605C28.6619 0.898471 28.793 0.98621 28.9033 1.0968Z" fill="#F8F8F8"/>
<path fill-rule="evenodd" clip-rule="evenodd" d="M1.09668 1.0968C0.986088 1.20711 0.898349 1.33815 0.838483 1.48242C0.778618 1.62669 0.747803 1.78135 0.747803 1.93755C0.747803 2.09375 0.778618 2.24841 0.838483 2.39268C0.898349 2.53695 0.986088 2.66799 1.09668 2.7783L27.2217 28.9033C27.4447 29.1263 27.7471 29.2515 28.0624 29.2515C28.3778 29.2515 28.6802 29.1263 28.9032 28.9033C29.1262 28.6803 29.2514 28.3779 29.2514 28.0625C29.2514 27.7472 29.1262 27.4448 28.9032 27.2218L2.77818 1.0968C2.66787 0.98621 2.53683 0.898471 2.39256 0.838605C2.24829 0.77874 2.09362 0.747925 1.93743 0.747925C1.78123 0.747925 1.62657 0.77874 1.4823 0.838605C1.33803 0.898471 1.20698 0.98621 1.09668 1.0968Z" fill="#F8F8F8"/>
</svg>
