<svg width="57" height="57" viewBox="0 0 57 57" fill="none" xmlns="http://www.w3.org/2000/svg">
<path d="M56.1521 11.7254C54.169 12.6041 52.0386 13.1979 49.799 13.4662C52.1099 12.0835 53.8387 9.90723 54.663 7.3435C52.4919 8.6331 50.1157 9.54084 47.6377 10.0272C45.9714 8.24805 43.7643 7.06877 41.359 6.6725C38.9538 6.27623 36.485 6.68513 34.3359 7.83572C32.1869 8.98632 30.4778 10.8142 29.4741 13.0357C28.4704 15.2571 28.2281 17.7478 28.785 20.121C24.3858 19.9001 20.0821 18.7567 16.1534 16.7649C12.2246 14.7731 8.75862 11.9775 5.98025 8.5595C5.03025 10.1982 4.484 12.0982 4.484 14.1217C4.48294 15.9434 4.93152 17.7371 5.78996 19.3437C6.64839 20.9504 7.89013 22.3203 9.405 23.332C7.64815 23.2761 5.93007 22.8014 4.39375 21.9474V22.0899C4.39357 24.6448 5.27732 27.121 6.89506 29.0985C8.51279 31.076 10.7649 32.4328 13.2691 32.9389C11.6394 33.3799 9.93067 33.4449 8.27212 33.1289C8.97868 35.3272 10.355 37.2496 12.2084 38.6268C14.0618 40.0041 16.2994 40.7673 18.6081 40.8096C14.689 43.8862 9.84885 45.5551 4.86637 45.5477C3.98378 45.548 3.10193 45.4964 2.22537 45.3934C7.28288 48.6452 13.1702 50.3709 19.1829 50.3642C39.5366 50.3642 50.6635 33.5065 50.6635 18.886C50.6635 18.411 50.6516 17.9312 50.6302 17.4562C52.7946 15.8911 54.6628 13.9529 56.1474 11.7325L56.1521 11.7254Z" fill="#EA2222"/>
</svg>
